<?xml version="1.0" standalone="no"?>
<!DOCTYPE svg PUBLIC "-//W3C//DTD SVG 20010904//EN"
 "http://www.w3.org/TR/2001/REC-SVG-20010904/DTD/svg10.dtd">
<svg version="1.0" xmlns="http://www.w3.org/2000/svg"
 width="512.000000pt" height="512.000000pt" viewBox="0 0 512.000000 512.000000"
 preserveAspectRatio="xMidYMid meet">
<metadata>
Created by potrace 1.14, written by Peter Selinger 2001-2017
</metadata>
<g transform="translate(0.000000,512.000000) scale(0.100000,-0.100000)"
fill="#000000" stroke="none">
<path d="M2495 5093 c-14 -13 -27 -34 -30 -46 -3 -12 -5 -141 -3 -286 l3 -263
28 -24 c38 -32 92 -32 132 0 l30 24 3 268 c3 295 0 313 -53 338 -43 21 -79 17
-110 -11z"/>
<path d="M1281 4777 c-29 -17 -50 -53 -51 -87 0 -15 54 -120 129 -250 140
-244 161 -268 225 -256 72 14 100 83 62 156 -37 73 -225 393 -244 418 -22 29
-86 39 -121 19z"/>
<path d="M3750 4783 c-25 -10 -39 -29 -112 -155 -39 -68 -96 -166 -126 -218
-41 -71 -55 -105 -55 -133 1 -47 32 -84 79 -93 64 -12 85 12 225 256 71 123
129 234 129 247 0 71 -74 121 -140 96z"/>
<path d="M2300 4130 c-134 -25 -249 -57 -344 -97 -551 -232 -914 -719 -981
-1318 -6 -53 -7 -236 -1 -295 6 -65 18 -145 26 -180 5 -19 11 -46 14 -60 20
-113 120 -346 204 -475 103 -160 243 -310 387 -416 44 -32 85 -62 90 -66 6 -5
28 -18 50 -31 188 -107 332 -159 589 -210 53 -11 412 -9 461 2 17 3 65 13 108
21 137 27 328 103 462 182 409 244 683 643 764 1108 23 133 26 380 6 502 -26
157 -82 338 -141 455 -28 56 -102 186 -116 203 -4 5 -34 44 -66 85 -173 222
-395 388 -672 504 -83 34 -230 72 -370 95 -95 16 -365 11 -470 -9z"/>
<path d="M381 3876 c-28 -16 -50 -52 -51 -84 0 -54 24 -75 252 -206 183 -106
230 -129 261 -129 72 1 116 76 83 141 -14 27 -32 40 -136 100 -19 11 -102 58
-185 106 -151 87 -180 96 -224 72z"/>
<path d="M4620 3864 c-25 -14 -63 -36 -85 -48 -245 -138 -327 -191 -341 -218
-33 -65 11 -140 83 -141 31 0 80 24 261 129 225 130 252 151 252 203 0 53 -49
101 -102 101 -13 0 -43 -12 -68 -26z"/>
<path d="M54 2649 c-25 -13 -54 -59 -54 -88 0 -35 21 -68 54 -86 27 -14 64
-16 299 -13 l269 3 24 28 c36 42 33 100 -7 138 l-31 29 -267 -1 c-157 0 -275
-4 -287 -10z"/>
<path d="M4504 2650 c-56 -22 -72 -108 -30 -157 l24 -28 269 -3 c235 -3 272
-1 299 13 33 18 54 51 54 86 0 30 -30 76 -57 88 -29 13 -527 14 -559 1z"/>
<path d="M816 1663 c-10 -3 -31 -12 -47 -22 -36 -21 -248 -142 -274 -156 -11
-6 -39 -23 -62 -38 -24 -15 -46 -27 -49 -27 -4 0 -15 -10 -26 -22 -54 -63 -24
-152 57 -165 30 -5 53 5 172 73 76 44 142 81 148 84 82 41 178 107 191 132 38
73 -30 160 -110 141z"/>
<path d="M4239 1652 c-65 -33 -77 -121 -21 -160 36 -26 251 -152 259 -152 4 0
14 -6 22 -14 30 -26 169 -96 191 -96 33 0 75 26 88 55 31 67 6 108 -100 168
-45 26 -101 58 -123 71 -132 78 -234 134 -256 139 -15 4 -39 0 -60 -11z"/>
<path d="M1517 922 c-34 -20 -287 -453 -287 -490 0 -37 27 -78 60 -92 34 -14
84 -8 105 14 15 15 246 408 259 441 16 41 15 61 -4 93 -31 51 -84 65 -133 34z"/>
<path d="M3515 931 c-53 -22 -75 -89 -46 -143 26 -49 73 -132 81 -143 4 -5 20
-32 35 -60 119 -217 150 -255 206 -255 56 0 107 60 97 114 -3 13 -62 123 -132
245 -145 250 -166 272 -241 242z"/>
<path d="M2493 646 l-28 -24 -3 -271 c-3 -310 -1 -322 68 -342 49 -15 89 -1
113 40 15 25 17 63 17 286 0 211 -3 261 -15 286 -28 53 -105 66 -152 25z"/>
</g>
</svg>
